<?xml version="1.0" encoding="utf-8"?>
<!-- Generator: Adobe Illustrator 27.4.0, SVG Export Plug-In . SVG Version: 6.00 Build 0)  -->
<svg version="1.1" id="Layer_1" xmlns="http://www.w3.org/2000/svg" xmlns:xlink="http://www.w3.org/1999/xlink" x="0px" y="0px"
	 viewBox="0 0 1280 1024" style="enable-background:new 0 0 1280 1024;" xml:space="preserve">
<g id="Layer_1_00000003825197700468564410000008521988127636545977_">
	<g>
		<path d="M681,447l1.5-171.5c-6.3-3.2-128.9-11.1-162-8.5c-38.2,3-150.1,12-199.4,79.6v-164h458l2-182.6H107.2l-1.9,182.6
			l1.9,196.3v648.3H327V631.8c0-46.3,18.8-79.5,37-107.6c18.8-29.1,42.6-48.8,70.8-69C487.7,416.9,565,396.7,681,447z"/>
	</g>
</g>
<g id="Layer_2_00000060031241212857546510000002603989028068759972_">
	<path d="M1164,887.5l-1-227.8l1-657.2c0-1.7-1.4-3.1-3.1-3.1H947.3c-1.7,0-3.1,1.4-3.1,3.1v118.4l-3.4,331l0,0
		c-0.4,4.9-8.4,73.3-27.7,95.2c-27.4,31.1-64.8,55.7-112.3,55.7c-40.1,0-67.8-6.8-89.5-27c-31.1-27.3-29.1-83.8-29.1-83.8
		c0-1.1-102-65.1-219.2-2.2l-0.6,7.7v7.2c0,100.2,24.2,156,72.8,203.9c48.5,48,114.4,72,197.7,72c56.9,0,104.4-9.8,142.3-29.2
		c20.7-10.7,51.1-41.8,51.1-39l0.6,126.9c0,1.7-1.4,3.1-3.1,3.1l-436.1,2.7c-1.7,0-3.1,1.4-3.1,3.1l0.7,176.5c0,1.7,1.4,3.1,3.1,3.1
		l672.6-3.3c1.7,0,3.1-1.4,3.1-3.1l-0.6-133.6L1164,887.5z"/>
</g>
</svg>
