<svg version="1.1" xmlns="http://www.w3.org/2000/svg" xmlns:xlink="http://www.w3.org/1999/xlink" x="0px" y="0px"
	 viewBox="0 0 360 360" style="enable-background:new 0 0 360 360;" xml:space="preserve">
<g id="Layer_1">
	<path d="M145.5,102.6c-11.9,0-22.5,2.6-32,7.8c-8.5,4.7-15.6,12.2-21.2,22.7l0-46.1h55.9V35.7h-116L31.6,87l0.5,55.2l0,182.3h61.8
		l0-111.2c0-17.2,6.4-28.4,12.2-38.9c7.2-13,38.4-41.4,84.5-21.5l0.4-48.2C189.3,103.8,149.3,102.6,145.5,102.6z"/>
</g>
<g id="Layer_2">
	<path d="M329.2,285.2l-0.3-64l0.3-185.7h-61.8l0,34.2l-45,0.3l0.2,66.5l43.7-0.4l0.1,26.8c-1.6,10.2-5.1,18.5-10.6,24.7
		c-7.7,8.7-18.2,13.1-31.6,13.1c-11.3,0-19-3.1-25.1-8.8c-6.1-5.7-8.2-7.9-8.2-19.7v-4.1l-0.4-0.3c-18.9-11.5-42.6-11.4-61.4,0.3
		l0,5.1v3.1c0,28.2,6.8,43.8,20.5,57.3c13.6,13.5,32.1,20.2,55.6,20.2c16,0,29.3-2.7,40-8.2c6.5-3.3,12.2-7.3,17.2-11.9l0.2,34
		l-128.9,0.8l0.2,56l195.3-0.9l-0.2-38.4L329.2,285.2z"/>
</g>
</svg>
