<?xml version="1.0" encoding="utf-8"?>
<!-- Generator: Adobe Illustrator 27.4.1, SVG Export Plug-In . SVG Version: 6.00 Build 0)  -->
<svg version="1.1" id="Layer_1" xmlns="http://www.w3.org/2000/svg" xmlns:xlink="http://www.w3.org/1999/xlink" x="0px" y="0px"
	 viewBox="0 0 1080 535" style="enable-background:new 0 0 1080 535;" xml:space="preserve">
<style type="text/css">
	.st0{fill:#FFFFFF;stroke:#000000;stroke-width:1.4452;stroke-miterlimit:10;}
	.st1{fill:#F7F7F7;}
</style>
<rect x="-295.4" y="-74.2" class="st0" width="1585.1" height="766.8"/>
<path class="st1" d="M593.9,519.9l-0.8-187.8l63.6-0.2l0.7,130l96.7-0.4l0.1,57.8L593.9,519.9z"/>
<path class="st1" d="M653.7,88.5l3.2,222.3l-63.6,0.8l-2.4-164.5l-154.2,2l-0.8-57.8L653.7,88.5z"/>
<path class="st1" d="M1035,5.1l3.2,222.3l-63.6,0.8l-2.4-164.5l-154.2,2l-0.8-57.8L1035,5.1z"/>
<path class="st1" d="M200.2,465.2l-0.7-226.6l-98.3,0.2l-0.1-57.8l260.3-0.6l0.1,57.8l-98.3,0.2l0.7,226.6L200.2,465.2z"/>
<path class="st1" d="M14.2-103.6l1.1,187.8l-63.6,0.3l-0.9-130l-96.7,0.5l-0.3-57.8L14.2-103.6z"/>
<path class="st1" d="M-48.9,327.8l0.5-222.3l63.6-0.9L17.8,269l154.2-2.3l0.9,57.8L-48.9,327.8z"/>
<path class="st1" d="M973.4,430.3l-0.8-187.8l63.6-0.2l0.7,130l96.7-0.4l4.2,57.8L973.4,430.3z"/>
<path class="st1" d="M341.2,238.2l-0.8-231L404,7l0.7,173.2l154.2-0.4l0.1,57.8L341.2,238.2z"/>
<path class="st1" d="M1036.5,79.4l-0.8-231l63.6-0.2l0.7,173.2l154.2-0.4l0.1,57.8L1036.5,79.4z"/>
<path class="st1" d="M120.2,429.4l1.1,187.8l-63.6,0.3l-0.9-130l-96.7,0.5l-0.3-57.8L120.2,429.4z"/>
<path class="st1" d="M443.8,729.5l-0.8-231l63.6-0.2l0.7,173.2l154.2-0.4l0.1,57.8L443.8,729.5z"/>
<path class="st1" d="M60.2,862.8l-0.8-231l63.6-0.2l0.7,173.2l154.2-0.4l0.1,57.8L60.2,862.8z"/>
<path class="st1" d="M362.5,719.1l1.1,187.8l-63.6,0.3l-0.9-130l-96.7,0.5l-0.3-57.8L362.5,719.1z"/>
<path class="st1" d="M302.4,1157.2l-0.8-231l63.6-0.2l0.7,173.2l154.2-0.4l0.1,57.8L302.4,1157.2z"/>
<g>
	<path class="st1" d="M289.8,465V271.1h51.8v30.5c5.3-11.1,12.1-18.9,20.6-23.5c8.4-4.6,17.9-6.9,28.5-6.9c3.4,0,39.3,1.6,40.9,2.4
		v42.6c-49.8-10.1-68.6,11.2-75.9,19s-10.9,19.3-10.9,34.6v95.4h-55V465z"/>
	<path class="st1" d="M449.2,463.4c-20.8,0-37.3-6-49.4-18s-18.2-30.5-18.2-55.6v-48.5l0,0c16.7-10.4,37.8-10.5,54.6-0.2l0.4,0.2
		v40.2c0,11.6,2.4,20.2,7.3,25.9c4.9,5.7,12.3,8.5,22.4,8.5c11.9,0,21.2-3.9,28.1-11.7c6.9-7.8,10.3-19,10.3-33.8v-99.3h55
		L559.3,465h-51.8l0.3-28.1c-5.8,7.9-13.5,14.3-22.9,19.2C475.3,461,463.5,463.4,449.2,463.4z"/>
</g>
<g>
	<path class="st1" d="M680.4,353.8V159.9h51.8v30.5c5.3-11.1,12.1-18.9,20.6-23.5c8.4-4.6,17.9-6.9,28.5-6.9
		c3.4,0,39.3,1.6,40.9,2.4V205c-49.8-10.1-68.6,11.2-75.9,19c-7.3,7.8-10.9,19.3-10.9,34.6V354h-55L680.4,353.8L680.4,353.8z"/>
	<path class="st1" d="M839.8,352.2c-20.8,0-37.3-6-49.4-18c-12.1-12-18.2-30.5-18.2-55.6v-48.5l0,0c16.7-10.4,37.8-10.5,54.6-0.2
		l0.4,0.2v40.2c0,11.6,2.4,20.2,7.3,25.9c4.9,5.7,12.3,8.5,22.4,8.5c11.9,0,21.2-3.9,28.1-11.7c6.9-7.8,10.3-19,10.3-33.8v-99.3h55
		L950,353.8h-52l0.3-28.1c-5.8,7.9-13.5,14.3-22.9,19.2C865.9,349.7,854,352.2,839.8,352.2z"/>
</g>
<g>
	<path class="st1" d="M1074.4,313.2V119.3h51.8v30.5c5.3-11.1,12.1-18.9,20.6-23.5c8.4-4.6,17.9-6.9,28.5-6.9
		c3.4,0,39.3,1.6,40.9,2.4v42.6c-49.8-10.1-68.6,11.2-75.9,19s-10.9,19.3-10.9,34.6v95.4h-55V313.2z"/>
</g>
<g>
	<path class="st1" d="M308.1-39.4v193.9h-51.8V124c-5.3,11.1-12.1,18.9-20.6,23.5c-8.4,4.6-17.9,6.9-28.5,6.9
		c-3.4,0-39.3-1.6-40.9-2.4v-42.6c49.8,10.1,68.6-11.2,75.9-19c7.3-7.8,10.9-19.3,10.9-34.6v-95.4h55V-39.4z"/>
	<path class="st1" d="M148.7-37.8c20.8,0,37.3,6,49.4,18s18.2,30.5,18.2,55.6v48.5l0,0c-16.7,10.4-37.8,10.5-54.6,0.2l-0.4-0.2V44.1
		c0-11.6-2.4-20.2-7.3-25.9c-4.9-5.7-12.3-8.5-22.4-8.5c-11.9,0-21.2,3.9-28.1,11.7s-10.3,19-10.3,33.8v99.3h-55l0.3-193.9h51.8
		L90-11.3c5.8-7.9,13.5-14.3,22.9-19.2C122.6-35.4,134.4-37.8,148.7-37.8z"/>
</g>
<path class="st1" d="M699.1-274l1.1,187.8l-63.6,0.3l-0.9-130l-96.7,0.5l-0.3-57.8L699.1-274z"/>
<path class="st1" d="M636,148.2l0.5-222.3l63.6-0.9l2.7,164.5L857,87.1l0.9,57.8L636,148.2z"/>
<g>
	<path class="st1" d="M993-202.8V-9h-51.8v-30.5c-5.3,11.1-12.1,18.9-20.6,23.5c-8.4,4.6-17.9,6.9-28.5,6.9
		c-3.4,0-39.3-1.6-40.9-2.4v-42.6c49.8,10.1,68.6-11.2,75.9-19c7.3-7.8,10.9-19.3,10.9-34.6v-95.4h55L993-202.8L993-202.8z"/>
	<path class="st1" d="M833.6-201.2c20.8,0,37.3,6,49.4,18c12.1,12,18.2,30.5,18.2,55.6v48.5l0,0c-16.7,10.4-37.8,10.5-54.6,0.2
		l-0.4-0.2v-40.2c0-11.6-2.4-20.2-7.3-25.9c-4.9-5.7-12.3-8.5-22.4-8.5c-11.9,0-21.2,3.9-28.1,11.7c-6.9,7.8-10.3,19-10.3,33.8v99.3
		h-55l0.3-193.9h51.8l-0.3,28.1c5.8-7.9,13.5-14.3,22.9-19.2C807.5-198.8,819.4-201.2,833.6-201.2z"/>
</g>
<g>
	<path class="st1" d="M418.2,498.3v193.9h-51.8v-30.5c-5.3,11.1-12.1,18.9-20.6,23.5c-8.4,4.6-17.9,6.9-28.5,6.9
		c-3.4,0-39.3-1.6-40.9-2.4v-42.6c49.8,10.1,68.6-11.2,75.9-19s10.9-19.3,10.9-34.6v-95.4h55V498.3z"/>
	<path class="st1" d="M258.8,499.9c20.8,0,37.3,6,49.4,18c12.1,12,18.2,30.5,18.2,55.6V622l0,0c-16.7,10.4-37.8,10.5-54.6,0.2
		l-0.4-0.2v-40.2c0-11.6-2.4-20.2-7.3-25.9s-12.3-8.5-22.4-8.5c-11.9,0-21.2,3.9-28.1,11.7c-6.9,7.8-10.3,19-10.3,33.8v99.3h-55
		l0.3-193.9h51.8l-0.3,28.1c5.8-7.9,13.5-14.3,22.9-19.2C232.7,502.4,244.5,499.9,258.8,499.9z"/>
</g>
<g>
	<path class="st1" d="M29.9,595.7v193.9h-51.8v-30.5c-5.3,11.1-12.1,18.9-20.6,23.5c-8.4,4.6-17.9,6.9-28.5,6.9
		c-3.4,0-39.3-1.6-40.9-2.4v-42.6c49.8,10.1,68.6-11.2,75.9-19s10.9-19.3,10.9-34.6v-95.4h55V595.7z"/>
	<path class="st1" d="M-129.5,597.3c20.8,0,37.3,6,49.4,18s18.2,30.5,18.2,55.6v48.5l0,0c-16.7,10.4-37.8,10.5-54.6,0.2l-0.4-0.2
		v-40.2c0-11.6-2.4-20.2-7.3-25.9s-12.3-8.5-22.4-8.5c-11.9,0-21.2,3.9-28.1,11.7c-6.9,7.8-10.3,19-10.3,33.8v99.3h-55l0.3-193.9
		h51.8l-0.3,28.1c5.8-7.9,13.5-14.3,22.9-19.2C-155.6,599.7-143.7,597.3-129.5,597.3z"/>
</g>
<path class="st1" d="M850.7,376.6l1.1,187.8l-63.6,0.3l-0.9-130l-96.7,0.5l-0.3-57.8L850.7,376.6z"/>
<path class="st1" d="M1174.3,668.6l-0.8-231l63.6-0.2l0.7,173.2l154.2-0.4l0.1,57.8L1174.3,668.6z"/>
<path class="st1" d="M790.7,814.7l-0.8-231l63.6-0.2l0.7,173.2l154.2-0.4l0.1,57.8L790.7,814.7z"/>
<g>
	<path class="st1" d="M1148.7,437.4v193.9h-51.8v-30.5c-5.3,11.1-12.1,18.9-20.6,23.5c-8.4,4.6-17.9,6.9-28.5,6.9
		c-3.4,0-39.3-1.6-40.9-2.4v-42.6c49.8,10.1,68.6-11.2,75.9-19s10.9-19.3,10.9-34.6v-95.4h55V437.4z"/>
	<path class="st1" d="M989.3,439.1c20.8,0,37.3,6,49.4,18s18.2,30.5,18.2,55.6v48.5l0,0c-16.7,10.4-37.8,10.5-54.6,0.2l-0.4-0.2V521
		c0-11.6-2.4-20.2-7.3-25.9c-4.9-5.7-12.3-8.5-22.4-8.5c-11.9,0-21.2,3.9-28.1,11.7c-6.9,7.8-10.3,19-10.3,33.8v99.3h-55l0.3-193.9
		H931l-0.3,28.1c5.8-7.9,13.5-14.3,22.9-19.2C963.2,441.5,975,439.1,989.3,439.1z"/>
</g>
<g>
	<path class="st1" d="M653.4,754.4v193.9h-51.8v-30.5c-5.3,11.1-12.1,18.9-20.6,23.5c-8.4,4.6-17.9,6.9-28.5,6.9
		c-3.4,0-39.3-1.6-40.9-2.4v-42.6c49.8,10.1,68.6-11.2,75.9-19s10.9-19.3,10.9-34.6v-95.4h55L653.4,754.4L653.4,754.4z"/>
	<path class="st1" d="M494,756c20.8,0,37.3,6,49.4,18c12.1,12,18.2,30.5,18.2,55.6v48.5l0,0c-16.7,10.4-37.8,10.5-54.6,0.2l-0.4-0.2
		v-40.2c0-11.6-2.4-20.2-7.3-25.9s-12.3-8.5-22.4-8.5c-11.9,0-21.2,3.9-28.1,11.7s-10.3,19-10.3,33.8v99.3h-55l0.3-193.9h51.8
		l-0.3,28.1c5.8-7.9,13.5-14.3,22.9-19.2C467.9,758.5,479.8,756,494,756z"/>
</g>
<path class="st1" d="M-24.6,867.5l1.1,187.8l-63.6,0.3l-0.9-130l-96.7,0.5l-0.3-57.8L-24.6,867.5z"/>
<path class="st1" d="M-84.7,1305.5l-0.8-231l63.6-0.2l0.7,173.2l154.2-0.4l0.1,57.8L-84.7,1305.5z"/>
<g>
	<path class="st1" d="M266.4,902.8v193.9h-51.8v-30.5c-5.3,11.1-12.1,18.9-20.6,23.5c-8.4,4.6-17.9,6.9-28.5,6.9
		c-3.4,0-39.3-1.6-40.9-2.4v-42.6c49.8,10.1,68.6-11.2,75.9-19s10.9-19.3,10.9-34.6v-95.4h55L266.4,902.8L266.4,902.8z"/>
	<path class="st1" d="M106.9,904.4c20.8,0,37.3,6,49.4,18s18.2,30.5,18.2,55.6v48.5l0,0c-16.7,10.4-37.8,10.5-54.6,0.2l-0.4-0.2
		v-40.2c0-11.6-2.4-20.2-7.3-25.9s-12.3-8.5-22.4-8.5c-11.9,0-21.2,3.9-28.1,11.7c-6.9,7.8-10.3,19-10.3,33.8v99.3h-55l0.3-193.9
		h51.8l-0.3,28.1c5.8-7.9,13.5-14.3,22.9-19.2C80.8,906.8,92.7,904.4,106.9,904.4z"/>
</g>
</svg>
