<?xml version="1.0" encoding="utf-8"?>
<!-- Generator: Adobe Illustrator 27.4.0, SVG Export Plug-In . SVG Version: 6.00 Build 0)  -->
<svg version="1.1" id="Layer_1" xmlns="http://www.w3.org/2000/svg" xmlns:xlink="http://www.w3.org/1999/xlink" x="0px" y="0px"
	 viewBox="0 0 142.2 100.8" style="enable-background:new 0 0 142.2 100.8;" xml:space="preserve">
<style type="text/css">
	.st0{fill:#231F20;}
</style>
<path class="st0" d="M71.3,0c18.3,0,36.7,0,55.1,0c10,0,15.8,5.8,15.8,15.9c0,22.9,0,45.9,0,68.9c0,9.8-6.1,16-15.9,16
	c-36.8,0-73.8,0-110.6,0c-9.6,0-15.7-6.1-15.7-15.7C0,61.9,0,38.6,0.1,15.4C0.1,5.8,6,0,15.4,0C34.1,0,52.7,0,71.3,0L71.3,0z
	 M6.8,19.6c0,22.1,0,43.2,0,64.3c0,7,2.7,9.7,9.7,9.7c36.4,0,72.9,0,109.4,0c6.9,0,9.6-2.9,9.6-9.8c0-20.8,0-41.6,0-62.4
	c0-1-0.1-2.2-0.3-3.6c-1.4,0.9-2.3,1.5-3.3,2.2c-14.8,10.4-29.5,21-44.3,31.6c-10.6,7.6-17.8,7.9-28.9,0.9
	c-7.4-4.6-14.8-9.3-22.2-14C26.8,32.3,17.2,26.1,6.8,19.6z M133.2,10.2c0-0.5,0.1-0.9,0.1-1.4c-2-0.5-4.2-1.5-6.2-1.6
	c-8.3-0.2-16.7-0.1-25-0.1c-28.9,0-57.7,0-86.6,0c-3.6,0-6.4,0.8-7.8,4.7c19,12,37.7,24,56.7,35.6c4.8,3,10.6,4.2,15.5,0.8
	C97.7,35.8,115.4,22.9,133.2,10.2z"/>
</svg>
