<?xml version="1.0" encoding="utf-8"?>
<!-- Generator: Adobe Illustrator 27.4.0, SVG Export Plug-In . SVG Version: 6.00 Build 0)  -->
<svg version="1.1" id="Layer_1" xmlns="http://www.w3.org/2000/svg" xmlns:xlink="http://www.w3.org/1999/xlink" x="0px" y="0px"
	 viewBox="0 0 250.8 38.2" style="enable-background:new 0 0 250.8 38.2;" xml:space="preserve">
<style type="text/css">
	.st0{fill:#231F20;}
</style>
<path class="st0" d="M28.6,38.1V0.3h10.7v37.7C39.3,38.1,28.6,38.1,28.6,38.1z"/>
<path class="st0" d="M47,38.2v-8L64.5,9.8H43.8L43.7,0h34.2L78,8.8L60.4,29.2h18.4v9C78.8,38.2,47,38.2,47,38.2z"/>
<path class="st0" d="M110.6,38.2V9.8H95.6V0h41.4v9.8H122v28.4H110.6L110.6,38.2z"/>
<path class="st0" d="M141.8,38.2V0.3h10.1v5.9c1-2.2,2.4-3.7,4-4.6c1.6-0.9,3.5-1.4,5.6-1.4c0.7,0,7.7,0.3,8,0.5v8.3
	c-9.7-2-13.4,2.2-14.8,3.7s-2.1,3.8-2.1,6.8v18.6L141.8,38.2L141.8,38.2z"/>
<path class="st0" d="M173,37.9c-4.1,0-7.3-1.2-9.7-3.5c-2.4-2.3-3.6-6-3.6-10.9V14l0,0c3.3-2,7.4-2.1,10.7,0l0.1,0v7.8
	c0,2.3,0.5,4,1.4,5.1c0.9,1.1,2.4,1.7,4.4,1.7c2.3,0,4.1-0.8,5.5-2.3c1.3-1.5,2-3.7,2-6.6V0.3h10.7l-0.1,37.9h-10.1l0.1-5.5
	c-1.1,1.5-2.6,2.8-4.5,3.8C178.1,37.4,175.8,37.9,173,37.9L173,37.9z"/>
<path class="st0" d="M198.6,38l-0.2-37.5l10.8,0l0.1,26l13-0.1l0,11.6L198.6,38L198.6,38z"/>
<path class="st0" d="M0.2,37.9L0,0.4l10.8,0l0.1,26l13-0.1l0,11.6L0.2,37.9L0.2,37.9z"/>
<path class="st0" d="M227.1,38l-0.2-37.5l10.8,0l0.1,26l13-0.1l0,11.6L227.1,38L227.1,38z"/>
</svg>
