<?xml version="1.0" encoding="utf-8"?>
<!-- Generator: Adobe Illustrator 27.3.1, SVG Export Plug-In . SVG Version: 6.00 Build 0)  -->
<svg version="1.1" id="Layer_1" xmlns="http://www.w3.org/2000/svg" xmlns:xlink="http://www.w3.org/1999/xlink" x="0px" y="0px"
	 viewBox="0 0 1280 1024" style="enable-background:new 0 0 1280 1024;" xml:space="preserve">
<g>
	<path d="M205.9,476.8l0.5-62.3c-2.3-1.2-53.9-2.7-58.9-2.7c-15.3,0-29.1,3.4-41.4,10.1c-11,6-20.2,15.8-27.4,29.4l0-59.6H151v-66.3
		H1l-0.7,66.3L1,462.9l0,235.6h79.9l0-143.7c0-22.2,8.3-36.8,15.8-50.3C106.1,487.6,146.3,450.9,205.9,476.8z"/>
	<path d="M385,647.7l-0.4-82.8l0.3-240h-79.9l0,44.2l-58.1,0.3l0.2,85.9l56.5-0.5l0.2,34.6c-2,13.2-6.6,23.9-13.7,32
		c-10,11.3-23.6,17-40.8,17c-14.6,0-24.6-4-32.5-11.3c-7.9-7.4-10.6-10.2-10.6-25.4v-5.3l-0.5-0.3c-24.4-14.9-55.1-14.8-79.3,0.3
		l0,6.6v4.1c0,36.4,8.8,56.7,26.4,74.1c17.6,17.4,41.5,26.1,71.8,26.1c20.7,0,37.9-3.5,51.7-10.6c8.4-4.3,15.8-9.4,22.2-15.4
		l0.2,42.6l-166.5,1l0.2,73.7l252.5-1.2l-0.2-49.7L385,647.7z"/>
</g>
<g>
	<path d="M568.5,588.5l0-120.3h34.2l0,120.3H568.5z"/>
	<path d="M627.2,589v-25.6l55.9-64.9l-66.1,0l-0.3-31.2h108.9l0.3,28.2l-56.2,64.9h58.6V589H627.2z"/>
	<path d="M829.8,589l0-90.5h-47.6v-31.3h132.1v31.3h-48l0,90.5H829.8z"/>
	<path d="M929.4,589l0-120.7h32.3l0,19c3.3-6.9,7.6-11.8,12.8-14.7c5.3-2.9,11.2-4.3,17.7-4.3c2.1,0,24.5,1,25.4,1.5v26.5
		c-31-6.3-42.7,7-47.2,11.8c-4.5,4.8-6.8,12-6.8,21.6l0,59.4H929.4z"/>
	<path d="M1028.6,588c-13,0-23.2-3.7-30.8-11.2c-7.6-7.5-11.3-19-11.3-34.6V512v0c10.4-6.5,23.6-6.5,34-0.1l0.2,0.1v25
		c0,7.2,1.5,12.6,4.6,16.1c3,3.5,7.7,5.3,13.9,5.3c7.4,0,13.2-2.4,17.5-7.3c4.3-4.8,6.4-11.9,6.4-21.1l0-61.8h34.2l-0.2,120.7h-32.3
		l0.2-17.5c-3.6,4.9-8.4,8.9-14.3,12C1044.9,586.5,1037.5,588,1028.6,588z"/>
	<path d="M1110.4,588.5l-0.5-119.6l34.4-0.1l0.4,82.8l41.3-0.2l0.1,36.8L1110.4,588.5z"/>
	<path d="M477.9,588l-0.5-119.6l34.4-0.1l0.4,82.8l41.3-0.2l0.1,36.8L477.9,588z"/>
	<path d="M1201.1,588.5l-0.5-119.6l34.4-0.1l0.4,82.8l41.3-0.2l0.1,36.8L1201.1,588.5z"/>
</g>
</svg>
