<?xml version="1.0" encoding="utf-8"?>
<!-- Generator: Adobe Illustrator 27.4.1, SVG Export Plug-In . SVG Version: 6.00 Build 0)  -->
<svg version="1.1" id="Layer_1" xmlns="http://www.w3.org/2000/svg" xmlns:xlink="http://www.w3.org/1999/xlink" x="0px" y="0px"
	 viewBox="0 0 24 24" style="enable-background:new 0 0 24 24;" xml:space="preserve">
<path d="M0,5.1v13.9C0,20.1,0.9,21,2.1,21h19.9c1.1,0,2.1-0.9,2.1-2.1V5.1C24,3.9,23.1,3,21.9,3H2.1C0.9,3,0,3.9,0,5.1z M21.2,5.3
	l-8.9,7.2c-0.2,0.1-0.4,0.1-0.6,0l-8.7-7C2.9,5.3,3,5,3.2,5L21,5C21.2,5,21.3,5.2,21.2,5.3z M2,18.6V7.4c0-0.1,0.1-0.2,0.2-0.1
	l9.2,7.5c0.3,0.3,0.8,0.3,1.2,0l9.1-7.4c0.1-0.1,0.3,0,0.3,0.1v11c0,0.2-0.2,0.4-0.4,0.4H2.4C2.2,19,2,18.8,2,18.6z"/>
</svg>
