<?xml version="1.0" encoding="utf-8"?>
<!-- Generator: Adobe Illustrator 27.4.0, SVG Export Plug-In . SVG Version: 6.00 Build 0)  -->
<svg version="1.1" xmlns="http://www.w3.org/2000/svg" xmlns:xlink="http://www.w3.org/1999/xlink" x="0px" y="0px"
	 viewBox="0 0 1280 1024" style="enable-background:new 0 0 1280 1024;" xml:space="preserve">
<g id="Layer_1">
	<g>
		<path d="M681,437l1.5-171.5c-6.3-3.2-148.3-7.5-162-7.5c-42.2,0-146.2,15.7-199.4,88.6v-164H669L671,0H107.2l-1.9,182.6l1.9,196.3
			v648.3H327V631.8c0-46.3,18.8-76.5,37-104.6c18.8-29.1,42.6-54.8,70.8-75C487.7,413.9,565,386.7,681,437z"/>
	</g>
</g>
<g id="Layer_2">
	<path d="M1164,887.5l-1-227.8l1-657.2c0-1.7-1.4-3.1-3.1-3.1H947.3c-1.7,0-3.1,1.4-3.1,3.1v118.4l-3.4,331c0,0.1,0,0.3,0,0.4
		c-5.6,36.3-8.1,65.6-27.7,87.8c-27.4,31.1-64.8,53.7-112.3,53.7c-40.1,0-67.6-10.9-89.3-31.1c-21.9-20.4-29.1-24.2-29.3-65.9v-12.8
		c0-1.1-117.5-74.5-218.3-2.7c-0.9,0.6-1.5,1.6-1.5,2.6v16.6v7.2c0,100.2,24.2,156,72.8,203.9c48.5,48,114.4,72,197.7,72
		c56.9,0,104.4-9.8,142.3-29.2c20.7-10.7,51.1-44.8,51.1-42l0.6,126.9c0,1.7-1.4,3.1-3.1,3.1l-452.1,2.7c-1.7,0-3.1,1.4-3.1,3.1
		l0.7,176.5c0,1.7,1.4,3.1,3.1,3.1l688.6-3.3c1.7,0,3.1-1.4,3.1-3.1l-0.6-133.6L1164,887.5z"/>
</g>
</svg>
