<?xml version="1.0" encoding="utf-8"?>
<!-- Generator: Adobe Illustrator 27.3.1, SVG Export Plug-In . SVG Version: 6.00 Build 0)  -->
<svg version="1.1" id="Layer_1" xmlns="http://www.w3.org/2000/svg" xmlns:xlink="http://www.w3.org/1999/xlink" x="0px" y="0px"
	 viewBox="0 0 1280 1024" style="enable-background:new 0 0 1280 1024;" xml:space="preserve">
<g>
	<path d="M671,417l1.5-171.5c-6.3-3.2-148.3-7.5-162-7.5c-42.2,0-80.1,9.2-113.9,27.7c-30.3,16.6-55.5,43.5-75.5,80.9l0-164h198.8V0
		H107.2l-1.9,182.6l1.9,196.3l0,648.3H327l0-395.4c0-61.1,22.8-101.2,43.5-138.4C396.3,447,507.2,346,671,417z"/>
	<path d="M1164,887.5l-1-227.8L1164-0.6H944.2l0,121.5l-160,0.9l0.6,236.5l155.5-1.5l0.5,95.3c-5.6,36.4-18.1,65.8-37.7,88
		c-27.4,31.1-64.8,46.7-112.3,46.7c-40.1,0-67.6-10.9-89.3-31.1c-21.9-20.4-29.1-28.2-29.3-69.9v-14.5l-1.5-0.9
		c-67.1-41-151.6-40.7-218.3,0.9l0,18.3v11.2c0,100.2,24.2,156,72.8,203.9c48.5,48,114.4,72,197.7,72c56.9,0,104.4-9.8,142.3-29.2
		c23.1-11.9,43.4-26,61.1-42.4l0.6,117.3l-458.3,2.7l0.7,202.7l694.8-3.3l-0.6-136.7L1164,887.5z"/>
</g>
</svg>
